<?xml version="1.0" encoding="UTF-8"?>
<svg xmlns="http://www.w3.org/2000/svg" xmlns:xlink="http://www.w3.org/1999/xlink" viewBox="0 0 24 24" width="24px" height="24px">
<g id="surface13810450">
<path style=" stroke:none;fill-rule:nonzero;fill:rgb(100%,100%,100%);fill-opacity:1;" d="M 10.125 3.375 C 6.402344 3.375 3.375 6.402344 3.375 10.125 C 3.375 13.847656 6.402344 16.875 10.125 16.875 C 11.671875 16.875 13.097656 16.34375 14.238281 15.464844 L 19.144531 20.371094 C 19.480469 20.710938 20.03125 20.710938 20.371094 20.371094 C 20.710938 20.03125 20.710938 19.480469 20.371094 19.144531 L 15.464844 14.238281 C 16.34375 13.097656 16.875 11.671875 16.875 10.125 C 16.875 6.402344 13.847656 3.375 10.125 3.375 Z M 10.125 4.875 C 13.019531 4.875 15.375 7.230469 15.375 10.125 C 15.375 13.019531 13.019531 15.375 10.125 15.375 C 7.230469 15.375 4.875 13.019531 4.875 10.125 C 4.875 7.230469 7.230469 4.875 10.125 4.875 Z M 10.125 4.875 "/>
</g>
</svg>
